<?xml version="1.0" standalone="no"?><!DOCTYPE svg PUBLIC "-//W3C//DTD SVG 1.1//EN" "http://www.w3.org/Graphics/SVG/1.1/DTD/svg11.dtd"><svg t="1666350262646" class="icon" viewBox="0 0 1024 1024" version="1.1" xmlns="http://www.w3.org/2000/svg" p-id="26268" xmlns:xlink="http://www.w3.org/1999/xlink" width="200" height="200"><path d="M512 256c-200.533333 0-362.666667 166.4-362.666667 373.333333V768h725.333334v-138.666667C874.666667 422.4 712.533333 256 512 256z" fill="#ffffff" p-id="26269"></path><path d="M874.666667 789.333333H149.333333c-12.8 0-21.333333-8.533333-21.333333-21.333333v-138.666667C128 411.733333 300.8 234.666667 512 234.666667s384 177.066667 384 394.666666V768c0 12.8-8.533333 21.333333-21.333333 21.333333zM170.666667 746.666667h682.666666v-117.333334C853.333333 435.2 699.733333 277.333333 512 277.333333S170.666667 435.2 170.666667 629.333333V746.666667z" fill="#ffffff" p-id="26270"></path><path d="M85.333333 768h853.333334v128H85.333333z" fill="#ffffff" p-id="26271"></path><path d="M938.666667 917.333333H85.333333c-12.8 0-21.333333-8.533333-21.333333-21.333333v-128c0-12.8 8.533333-21.333333 21.333333-21.333333h853.333334c12.8 0 21.333333 8.533333 21.333333 21.333333v128c0 12.8-8.533333 21.333333-21.333333 21.333333zM106.666667 874.666667h810.666666v-85.333334H106.666667v85.333334z" fill="#ffffff" p-id="26272"></path><path d="M448 149.333333h128v384h-128z" fill="#ffffff" p-id="26273"></path><path d="M576 554.666667h-128c-12.8 0-21.333333-8.533333-21.333333-21.333334V149.333333c0-12.8 8.533333-21.333333 21.333333-21.333333h128c12.8 0 21.333333 8.533333 21.333333 21.333333v384c0 12.8-8.533333 21.333333-21.333333 21.333334z m-106.666667-42.666667h85.333334V170.666667h-85.333334v341.333333z" fill="#ffffff" p-id="26274"></path></svg>