<?xml version="1.0" standalone="no"?><!DOCTYPE svg PUBLIC "-//W3C//DTD SVG 1.1//EN" "http://www.w3.org/Graphics/SVG/1.1/DTD/svg11.dtd"><svg t="1666260768197" class="icon" viewBox="0 0 1024 1024" version="1.1" xmlns="http://www.w3.org/2000/svg" p-id="46785" xmlns:xlink="http://www.w3.org/1999/xlink" width="200" height="200"><path d="M95.978958 680.791288l63.58927 0c11.025101 0.318248 21.98471-4.615111 28.204365-13.845333l68.137867-100.767008 97.243765 201.597461c4.102435 8.588609 12.17939 14.486946 21.349237 16.666588 16.666588 4.230348 34.101679-4.487198 39.162952-19.871583l131.407865-397.040758 95.768157 289.548582c3.01466 13.59053 15.83464 23.717168 31.346939 23.717168l160.125931 0c2.758834 0 5.384637-0.323365 8.010441-0.963954 10.897188 18.205641 31.855522 30.579459 56.024991 30.579459 35.383882 0 64.034409-26.477025 64.034409-59.168588 0-32.752961-28.650527-59.229986-64.034409-59.229986-24.101931 0-45.066405 12.369725-56.024991 30.579459-2.625804-0.64059-5.255701-0.963954-8.010441-0.963954L696.097902 621.62884 575.777559 257.977539c-5.127787-15.57472-23.01518-24.425296-39.938618-19.614733-5.830799 1.666966-10.897188 4.810562-14.615882 8.78406-3.137457 3.077082-5.51255 6.857175-6.990205 11.154038l-136.920416 414.029688-86.593194-179.679265c-1.539053-3.651157-3.780093-7.113001-6.922666-9.999748-0.128937-0.190335-0.318248-0.318248-0.447185-0.384763l-0.579191-0.575098c-9.04091-7.949043-22.886243-10.640338-35.127032-5.51255-6.92369 2.820232-12.245905 7.692193-15.445784 13.528108l-89.296769 131.921565-46.922682 0c-17.691941 0-31.989575 13.266142-31.989575 29.614481C63.989383 667.525146 78.353532 680.791288 95.978958 680.791288L95.978958 680.791288 95.978958 680.791288 95.978958 680.791288z" p-id="46786" fill="#1296db"></path></svg>