<?xml version="1.0" standalone="no"?><!DOCTYPE svg PUBLIC "-//W3C//DTD SVG 1.1//EN" "http://www.w3.org/Graphics/SVG/1.1/DTD/svg11.dtd"><svg t="1666229923947" class="icon" viewBox="0 0 1024 1024" version="1.1" xmlns="http://www.w3.org/2000/svg" p-id="14053" xmlns:xlink="http://www.w3.org/1999/xlink" width="200" height="200"><path d="M274.35 910.96a27.862 27.862 0 0 1-27.38-32.92l47.29-255.15-189.72-176.52c-7.9-7.34-10.84-18.59-7.56-28.86s12.2-17.73 22.89-19.13l188.65-24.81c15.24-2.02 29.23 8.73 31.23 23.98 1.99 15.25-8.74 29.23-23.98 31.23l-130.01 17.09L343.4 592.53c6.96 6.49 10.15 16.09 8.41 25.46l-39.27 211.87 187.61-104.88a27.877 27.877 0 0 1 26.92-0.15L715.81 827.7l-41.53-211.45a27.862 27.862 0 0 1 8.14-25.55l156.04-148.33-213.43-25.74a27.832 27.832 0 0 1-21.81-15.7L510.83 206.5l-79 170.99c-6.44 13.98-23.04 20.07-36.94 13.6-13.96-6.45-20.05-22.99-13.6-36.95L485.21 129.2c4.53-9.8 14.32-16.11 25.12-16.16h0.15c10.75 0 20.54 6.18 25.14 15.9l111.3 234.25 256.92 30.98c10.71 1.3 19.7 8.65 23.09 18.89 3.39 10.23 0.56 21.51-7.25 28.94L731.87 620.53l50.01 254.63c2.08 10.6-2.14 21.44-10.84 27.82-8.7 6.38-20.34 7.16-29.8 1.99L513.9 781.09 287.94 907.41a27.694 27.694 0 0 1-13.59 3.55z" p-id="14054" fill="#ffffff"></path></svg>